<?xml version="1.0" standalone="no"?>
<!DOCTYPE svg PUBLIC "-//W3C//DTD SVG 20010904//EN"
 "http://www.w3.org/TR/2001/REC-SVG-20010904/DTD/svg10.dtd">
<svg version="1.0" xmlns="http://www.w3.org/2000/svg"
 width="308.000000pt" height="308.000000pt" viewBox="0 0 308.000000 308.000000"
 preserveAspectRatio="xMidYMid meet">

<g transform="translate(0.000000,308.000000) scale(0.100000,-0.100000)"
fill="#000000" stroke="none">
<path d="M1376 2809 c-288 -40 -544 -169 -748 -376 -178 -181 -292 -397 -344
-648 -25 -123 -26 -366 -1 -485 56 -265 174 -484 359 -667 185 -182 399 -296
653 -349 123 -25 366 -26 485 -1 265 56 484 174 667 359 182 185 296 399 349
653 25 123 26 366 1 485 -109 515 -489 903 -992 1011 -106 23 -328 32 -429 18z
m418 -580 c-3 -5 -21 -11 -40 -15 -35 -6 -39 -4 -130 87 l-94 93 -31 -29 -32
-30 7 30 c4 17 18 55 32 84 l25 55 134 -134 c74 -73 132 -137 129 -141z m-348
211 c-62 -70 -106 -161 -106 -219 0 -25 9 -80 20 -121 26 -101 25 -163 -4
-225 -57 -124 -186 -171 -186 -68 0 42 53 106 81 98 24 -8 25 11 2 24 -38 21
-116 -37 -133 -98 -16 -58 -12 -81 19 -112 20 -19 40 -29 60 -29 37 0 37 -2
11 -112 -11 -46 -20 -96 -19 -113 0 -25 4 -22 20 25 29 82 125 258 199 362
106 149 252 261 439 335 47 19 95 38 106 43 29 12 266 49 360 55 67 5 77 3 61
-7 -11 -7 -59 -39 -107 -71 -103 -67 -148 -116 -196 -212 -19 -38 -54 -90 -76
-114 -37 -38 -39 -42 -17 -36 14 4 35 13 47 21 12 8 25 14 28 14 3 0 5 -45 5
-99 0 -206 -78 -331 -239 -381 -115 -36 -196 -18 -219 49 -12 34 -7 38 22 16
28 -21 95 -19 134 5 87 53 75 204 -18 225 -34 7 -76 -8 -89 -34 -10 -18 -8
-19 28 -14 32 4 41 1 55 -18 33 -48 11 -118 -43 -137 -42 -15 -90 9 -97 48 -4
17 -10 33 -14 35 -15 9 -33 -67 -27 -115 l6 -47 -72 -16 c-70 -15 -234 -83
-225 -93 3 -2 38 3 79 11 174 37 296 30 440 -26 90 -35 153 -94 165 -154 10
-58 -1 -122 -31 -167 -41 -62 -41 -133 1 -185 38 -47 85 -56 127 -23 21 17 27
30 27 61 0 41 -14 53 -23 19 -7 -28 -33 -35 -62 -16 -30 20 -31 35 -4 70 49
62 129 13 129 -80 0 -49 -60 -109 -119 -119 -56 -9 -126 24 -149 71 -9 19 -18
33 -21 31 -65 -37 -109 -49 -158 -44 -63 7 -96 25 -123 70 -28 45 -25 48 20
30 81 -32 202 23 244 111 25 52 21 112 -9 141 -31 32 -86 34 -115 5 -21 -21
-27 -60 -10 -60 6 0 10 7 10 15 0 23 48 30 70 10 29 -26 33 -61 11 -110 -26
-60 -88 -100 -152 -100 -62 0 -94 24 -141 106 -51 89 -117 154 -178 176 -28
10 -50 21 -50 25 0 4 16 10 36 14 50 9 97 -15 136 -71 45 -64 108 -75 137 -24
33 60 -28 139 -123 159 -67 14 -194 0 -233 -25 -20 -14 -23 -13 -42 13 -11 16
-54 45 -98 66 -145 71 -226 154 -263 270 -24 73 -22 114 10 176 19 38 54 60
95 60 37 0 32 -31 -14 -84 -63 -73 -64 -139 -3 -244 26 -46 109 -109 187 -142
50 -21 53 -16 27 38 -11 20 -32 82 -48 137 -26 89 -29 115 -29 240 0 121 3
150 24 210 56 166 181 354 294 440 41 32 134 84 150 85 5 0 -12 -23 -37 -50z
m-549 -452 c32 -30 32 -92 -1 -113 -13 -8 -31 -13 -40 -9 -20 8 -21 20 0 28
24 9 14 50 -14 54 -29 4 -78 -47 -92 -96 -15 -55 -12 -191 6 -251 19 -65 12
-76 -14 -24 -32 62 -52 142 -52 208 0 144 132 273 207 203z m1413 -263 l175
-175 -239 -238 -238 -237 5 59 6 59 178 179 179 179 -124 122 c-68 67 -128
129 -132 138 -10 17 -2 89 9 89 3 0 85 -79 181 -175z m-1629 -162 c13 -27 53
-75 88 -108 35 -33 221 -215 413 -405 321 -318 350 -344 368 -332 17 10 25 10
45 -5 13 -10 25 -20 25 -23 0 -3 -20 -26 -45 -50 l-45 -45 -477 477 -477 477
32 31 c17 16 36 30 40 30 5 0 20 -21 33 -47z m794 -368 c21 -8 39 -25 45 -40
21 -54 -31 -88 -67 -44 -10 11 -35 38 -56 60 l-38 39 41 0 c22 0 56 -7 75 -15z"/>
</g>
</svg>
