<?xml version="1.0" standalone="no"?>
<!DOCTYPE svg PUBLIC "-//W3C//DTD SVG 20010904//EN"
 "http://www.w3.org/TR/2001/REC-SVG-20010904/DTD/svg10.dtd">
<svg version="1.0" xmlns="http://www.w3.org/2000/svg"
 width="124.000000pt" height="124.000000pt" viewBox="0 0 124.000000 124.000000"
 preserveAspectRatio="xMidYMid meet">

<g transform="translate(0.000000,124.000000) scale(0.100000,-0.100000)"
fill="#000000" stroke="none">
<path d="M542 970 c-113 -82 -162 -243 -115 -382 l19 -57 -38 20 c-21 11 -45
31 -54 45 -21 31 -21 84 0 100 20 14 21 34 1 34 -26 0 -48 -46 -41 -86 7 -36
74 -114 99 -114 6 0 23 -9 36 -19 19 -14 32 -17 59 -10 65 14 133 -17 119 -56
-9 -23 -41 -18 -65 10 -12 14 -32 25 -44 24 -22 0 -22 -1 -3 -12 24 -15 65
-56 88 -91 30 -44 90 -31 110 26 7 19 -17 43 -33 33 -5 -3 -10 -2 -10 3 0 16
31 23 46 11 41 -34 -12 -114 -71 -107 -29 3 -32 2 -24 -14 13 -24 55 -33 85
-19 20 9 28 7 44 -9 11 -11 31 -20 43 -20 26 0 57 28 57 52 0 21 -26 42 -45
34 -19 -7 -20 -36 0 -36 8 0 15 5 15 11 0 5 5 7 10 4 18 -11 -9 -47 -33 -43
-30 4 -45 49 -27 83 19 35 17 81 -4 104 -38 42 -138 61 -218 42 -56 -13 -37 3
27 23 30 10 52 22 49 27 -3 5 -2 19 2 31 6 19 7 19 16 5 12 -22 45 -22 56 1
13 24 4 42 -21 42 -15 0 -18 3 -10 11 6 6 21 9 34 7 19 -2 25 -10 27 -35 3
-25 -2 -35 -23 -49 -22 -15 -30 -15 -47 -5 -16 10 -19 10 -16 -1 8 -23 48 -37
80 -27 74 21 108 70 108 154 0 44 -1 45 -22 34 -20 -11 -20 -9 5 20 15 18 27
38 27 45 0 16 45 58 90 85 l35 21 -35 0 c-63 0 -169 -28 -231 -61 -75 -40
-137 -109 -184 -201 -34 -70 -44 -74 -26 -11 8 28 7 32 -15 37 -30 8 -33 55
-6 79 26 24 46 21 22 -3 -35 -35 -20 -71 21 -50 36 20 50 70 37 134 -12 62 -2
100 34 133 21 18 21 18 15 -5 -4 -18 -2 -22 12 -17 11 3 29 -7 51 -30 32 -33
60 -45 60 -27 0 17 -96 99 -117 100 -12 0 -40 -12 -61 -28z"/>
<path d="M305 786 c-29 -29 -33 -89 -11 -141 12 -28 12 -25 8 32 -3 48 0 69
12 88 17 26 42 25 32 -2 -4 -9 -1 -13 6 -11 7 3 13 15 13 29 0 33 -29 36 -60
5z"/>
<path d="M850 747 c0 -7 25 -37 55 -67 l55 -54 -75 -76 c-42 -42 -75 -84 -75
-95 0 -14 26 6 95 75 l95 95 -67 67 c-68 69 -83 79 -83 55z"/>
<path d="M242 637 c-9 -10 33 -57 181 -205 188 -188 194 -192 211 -173 17 18
7 39 -12 27 -11 -6 -352 336 -352 352 0 16 -15 15 -28 -1z"/>
<path d="M220 565 c13 -14 26 -25 28 -25 3 0 -5 11 -18 25 -13 14 -26 25 -28
25 -3 0 5 -11 18 -25z"/>
<path d="M310 475 c19 -19 36 -35 39 -35 3 0 -10 16 -29 35 -19 19 -36 35 -39
35 -3 0 10 -16 29 -35z"/>
<path d="M570 465 c13 -14 27 -25 32 -25 16 0 8 29 -11 40 -35 18 -45 11 -21
-15z"/>
<path d="M455 330 c55 -55 102 -100 105 -100 2 0 -40 45 -95 100 -55 55 -102
100 -105 100 -2 0 40 -45 95 -100z"/>
</g>
</svg>
