<?xml version="1.0" standalone="no"?>
<!DOCTYPE svg PUBLIC "-//W3C//DTD SVG 20010904//EN"
 "http://www.w3.org/TR/2001/REC-SVG-20010904/DTD/svg10.dtd">
<svg version="1.0" xmlns="http://www.w3.org/2000/svg"
 width="308.000000pt" height="308.000000pt" viewBox="0 0 308.000000 308.000000"
 preserveAspectRatio="xMidYMid meet">

<g transform="translate(0.000000,308.000000) scale(0.100000,-0.100000)"
fill="#000000" stroke="none">
<path d="M1506 2449 c-14 -29 -28 -67 -32 -84 l-6 -30 32 31 32 31 93 -95 c91
-91 95 -94 129 -88 19 4 37 10 40 15 3 4 -55 68 -129 141 l-134 134 -25 -55z"/>
<path d="M1425 2463 c-158 -82 -307 -271 -382 -487 -38 -109 -43 -281 -13
-401 19 -78 48 -165 75 -227 28 -68 -185 59 -229 136 -59 102 -58 173 5 241
46 50 52 85 14 85 -41 0 -76 -22 -95 -60 -31 -60 -34 -101 -12 -173 34 -114
117 -200 261 -271 46 -22 93 -52 103 -67 l19 -26 41 20 c58 29 206 30 263 2
43 -22 85 -75 85 -109 0 -38 -28 -66 -66 -66 -36 0 -58 17 -98 75 -25 36 -78
57 -122 49 -18 -3 -34 -9 -34 -13 0 -3 22 -14 50 -24 61 -22 127 -87 179 -177
47 -83 90 -114 149 -107 59 6 119 49 143 100 25 55 24 73 -6 102 -30 31 -48
31 -75 3 l-20 -22 0 22 c0 59 89 84 135 37 65 -64 -1 -210 -114 -250 -54 -19
-82 -19 -126 -1 -41 17 -43 11 -12 -35 47 -71 144 -89 232 -44 27 13 50 23 51
22 1 -1 9 -16 17 -33 17 -34 86 -74 126 -74 32 0 96 35 120 66 25 31 27 83 6
123 -25 49 -82 56 -114 15 -27 -35 -26 -50 3 -69 20 -13 29 -14 46 -5 12 7 19
18 16 26 -7 19 11 18 22 -2 25 -45 -27 -107 -86 -102 -26 2 -43 12 -66 41 -26
33 -30 46 -30 93 1 35 7 61 17 72 42 46 60 147 36 209 -19 52 -79 101 -159
132 -143 55 -234 62 -405 31 -60 -10 -111 -17 -113 -15 -9 9 159 78 225 92
l71 16 -5 51 c-6 59 19 138 31 101 17 -48 33 -69 60 -76 75 -20 135 75 90 140
-14 19 -23 22 -55 18 -36 -5 -38 -4 -28 14 13 26 55 41 89 34 93 -21 105 -172
18 -225 -39 -24 -106 -26 -134 -5 -29 22 -34 18 -22 -16 23 -68 104 -85 224
-48 57 18 77 31 130 83 80 80 104 149 104 297 0 54 -2 99 -5 99 -3 0 -16 -6
-28 -14 -12 -8 -33 -17 -47 -21 -22 -6 -20 -2 17 36 22 24 58 77 78 118 46 93
113 161 228 231 48 29 87 55 87 57 0 9 -177 -9 -290 -29 -309 -54 -553 -202
-707 -428 -63 -93 -150 -254 -180 -335 -18 -49 -22 -55 -22 -30 0 17 8 70 19
119 11 50 20 94 20 98 0 4 -14 8 -31 8 -20 0 -40 10 -60 29 -31 31 -35 54 -19
112 17 61 95 119 133 98 23 -13 22 -32 -2 -24 -28 8 -81 -56 -81 -98 0 -103
129 -56 186 68 30 63 31 131 4 227 -11 40 -20 93 -20 119 0 58 44 149 106 219
25 27 42 50 37 50 -4 -1 -30 -13 -58 -27z"/>
<path d="M820 2003 c-70 -26 -130 -130 -130 -224 0 -60 21 -142 52 -202 27
-53 32 -41 12 28 -12 42 -15 84 -12 156 3 90 6 102 34 141 24 34 36 43 59 43
23 0 31 -5 33 -23 2 -13 -3 -25 -12 -28 -21 -8 -20 -20 0 -28 9 -4 27 1 40 9
18 12 24 25 24 53 0 60 -47 95 -100 75z"/>
<path d="M2115 1860 l-7 -39 131 -132 c72 -73 131 -135 131 -138 0 -3 -80 -87
-178 -187 l-178 -180 -3 -55 -2 -54 238 237 238 238 -175 175 c-96 96 -178
175 -182 175 -3 0 -9 -18 -13 -40z"/>
<path d="M610 1584 l-33 -36 477 -476 476 -476 45 44 c25 24 45 47 45 50 0 3
-12 13 -25 23 -20 15 -28 15 -45 5 -18 -12 -46 14 -363 327 -188 187 -372 367
-408 400 -36 33 -79 86 -97 118 -18 31 -34 57 -35 57 -2 0 -19 -16 -37 -36z"/>
<path d="M1388 1185 c18 -15 39 -40 47 -56 30 -58 99 -45 87 17 -6 35 -41 54
-109 61 l-58 5 33 -27z"/>
</g>
</svg>
