<?xml version="1.0" standalone="no"?>
<!DOCTYPE svg PUBLIC "-//W3C//DTD SVG 20010904//EN"
 "http://www.w3.org/TR/2001/REC-SVG-20010904/DTD/svg10.dtd">
<svg version="1.0" xmlns="http://www.w3.org/2000/svg"
 width="500.000000pt" height="405.000000pt" viewBox="0 0 500.000000 405.000000"
 preserveAspectRatio="xMidYMid meet">

<g transform="translate(0.000000,405.000000) scale(0.100000,-0.100000)"
fill="#000000" stroke="none">
<path d="M2855 3858 c-44 -4 -256 -7 -471 -7 -342 0 -392 -2 -404 -15 -7 -9
-22 -16 -34 -16 -47 0 -48 -16 -1 -45 53 -34 57 -52 13 -59 -18 -3 -76 -12
-128 -20 -148 -24 -187 -27 -215 -14 -25 11 -34 28 -14 28 25 0 77 32 73 45
-4 9 15 16 68 25 40 6 82 15 93 19 17 7 14 10 -20 16 -42 9 -153 -4 -271 -31
-345 -77 -324 -71 -324 -95 0 -17 5 -20 23 -16 45 11 102 19 97 14 -3 -2 -68
-24 -145 -47 -170 -50 -244 -79 -493 -187 -111 -49 -200 -82 -210 -79 -9 3
-40 -3 -67 -13 -54 -21 -52 -13 -39 -114 4 -35 2 -54 -10 -72 -9 -13 -16 -42
-16 -63 0 -21 -6 -52 -14 -68 -22 -44 -38 -187 -35 -306 3 -95 1 -109 -16
-128 -19 -20 -20 -39 -23 -261 -2 -191 0 -252 12 -300 9 -33 16 -95 16 -137 0
-70 4 -103 32 -252 31 -171 78 -350 166 -640 29 -95 70 -202 81 -213 14 -14
71 6 158 53 80 43 87 64 26 68 -24 2 -43 5 -43 7 0 3 6 22 14 42 17 47 39 153
33 159 -2 3 -24 8 -48 12 -37 6 -45 12 -47 32 -3 18 5 32 34 56 35 30 38 36
35 80 -1 26 -8 52 -15 58 -8 6 -17 28 -20 48 -6 31 -2 41 24 71 32 37 38 57
18 57 -7 0 -1 10 14 21 17 13 25 26 21 36 -5 13 -3 14 15 4 11 -6 51 -14 89
-18 l68 -8 -3 -32 c-2 -22 2 -34 15 -42 17 -10 16 -13 -12 -36 l-30 -25 46 0
46 0 7 -41 c7 -47 -1 -61 -44 -79 -33 -13 -40 -30 -14 -30 9 0 27 -11 40 -25
16 -18 33 -25 59 -25 49 0 75 -16 75 -45 0 -13 5 -27 10 -30 16 -10 12 -41
-11 -85 -12 -23 -19 -44 -15 -47 3 -4 31 -10 62 -14 40 -5 64 -15 83 -33 33
-31 74 -34 168 -9 75 21 103 48 85 86 -5 12 -13 29 -15 38 -6 18 18 59 34 59
14 0 128 100 140 123 14 26 1 57 -23 57 -18 0 -20 4 -15 36 4 20 15 46 25 58
28 30 31 47 15 84 -12 29 -11 35 4 57 10 13 35 33 56 45 20 12 37 24 37 28 0
4 -13 21 -30 39 -21 23 -35 30 -51 26 -13 -4 -26 0 -33 8 -18 24 -88 61 -144
75 -51 14 -55 13 -95 -11 -66 -39 -101 -70 -93 -83 4 -7 14 -12 23 -12 19 0
42 -28 43 -51 0 -11 -24 -28 -70 -50 -38 -18 -68 -34 -66 -36 2 -2 35 0 74 5
46 5 75 5 82 -2 6 -6 16 -4 28 7 44 40 73 7 62 -70 -5 -33 -16 -54 -39 -75
-20 -19 -31 -38 -29 -51 4 -28 25 -33 33 -8 4 14 15 21 31 21 14 0 34 5 46 11
11 6 23 8 26 4 12 -12 -53 -118 -84 -137 -40 -24 -60 -82 -22 -64 7 3 23 13
36 22 32 24 27 1 -8 -34 -16 -17 -34 -41 -39 -54 -6 -16 -22 -27 -55 -36 -64
-17 -69 -16 -56 9 15 27 6 35 -25 21 -37 -17 -84 -15 -91 3 -4 9 9 32 35 60
43 47 57 81 47 119 -5 19 -14 25 -39 28 -20 2 -31 8 -29 16 4 19 -36 72 -54
72 -11 0 -8 9 12 35 l26 35 -23 8 c-15 6 -18 11 -11 16 23 14 12 35 -30 58
-26 15 -44 33 -49 49 -8 32 -3 40 39 65 18 10 35 29 39 41 7 32 -5 89 -22 103
-8 7 -15 15 -15 19 0 11 86 31 130 31 66 0 56 19 -12 22 -60 3 -63 4 -63 28 0
24 3 25 74 28 68 3 73 4 68 24 -3 11 -1 29 6 39 9 15 7 21 -16 40 -18 13 -27
29 -25 43 2 16 -3 22 -21 24 -13 2 -28 -1 -34 -7 -15 -15 -55 -13 -92 3 l-30
14 37 16 c21 9 49 16 63 16 27 0 105 63 105 86 0 8 4 14 10 14 5 0 22 13 36
30 15 16 36 32 46 36 16 5 19 12 14 39 -5 27 -1 39 21 65 l27 32 -45 39 c-24
22 -74 54 -111 72 -48 22 -71 39 -79 59 -20 50 10 118 47 104 24 -9 36 2 24
25 -9 16 -7 19 8 19 42 0 76 -72 50 -106 -5 -7 -2 -16 7 -24 8 -7 12 -16 10
-21 -3 -4 15 -31 40 -59 25 -28 45 -55 45 -59 0 -33 122 -12 156 26 21 25 38
27 136 19 38 -4 87 -19 150 -49 99 -46 148 -63 148 -50 0 5 -8 33 -18 65 -25
80 -15 202 23 282 22 48 25 60 14 67 -8 5 -17 9 -20 9 -9 0 -18 180 -11 229 4
24 12 46 19 48 6 2 20 -16 31 -40 19 -42 21 -44 63 -44 35 0 47 -5 66 -29 13
-16 28 -43 35 -60 11 -30 14 -32 60 -30 47 1 49 2 64 42 l16 41 56 -20 c45
-16 59 -17 75 -8 14 9 22 10 30 2 24 -24 46 -12 55 32 l10 42 1 -61 c1 -33 4
-63 7 -67 4 -3 19 0 35 8 41 22 46 19 58 -29 7 -30 21 -51 44 -69 29 -22 36
-36 47 -89 7 -35 12 -94 11 -131 -1 -44 2 -66 9 -62 15 9 13 2 -14 -57 -64
-139 -37 -143 107 -14 125 111 164 141 195 149 26 6 27 -1 7 -50 -20 -47 -13
-63 27 -63 17 0 41 -9 52 -19 24 -22 106 -41 176 -41 56 0 59 -6 34 -66 -15
-36 -15 -39 4 -54 10 -9 25 -32 32 -52 11 -30 20 -38 49 -43 20 -4 39 -12 43
-18 3 -6 21 -15 40 -21 44 -15 67 -59 44 -85 -36 -40 -7 -72 102 -111 34 -12
62 -28 62 -35 0 -35 -106 -82 -156 -69 -11 3 -29 21 -39 40 -18 34 -18 35 3
64 l22 29 -41 11 c-65 18 -91 10 -104 -30 -7 -22 -27 -46 -56 -66 -47 -33 -57
-52 -40 -81 8 -14 32 -20 123 -29 134 -13 219 -42 236 -80 7 -14 27 -31 45
-39 17 -7 42 -25 54 -39 23 -26 66 -35 78 -16 3 5 22 10 41 10 19 0 34 5 34
11 0 15 -20 50 -47 83 -15 18 -23 39 -21 55 3 22 8 26 42 29 29 3 44 -2 62
-18 12 -12 44 -36 70 -54 31 -21 60 -52 86 -96 37 -61 39 -69 34 -125 -2 -33
-7 -74 -11 -91 -5 -24 -1 -37 19 -61 29 -34 33 -65 12 -82 -7 -6 -16 -24 -19
-40 -4 -20 -14 -31 -32 -35 -30 -8 -33 -40 -6 -75 15 -19 16 -32 9 -79 -5 -31
-14 -63 -21 -72 -52 -66 -83 -100 -94 -100 -23 0 -25 -22 -6 -48 31 -43 35
-63 18 -89 l-16 -24 -33 21 c-28 17 -35 18 -45 6 -6 -7 -8 -26 -5 -45 5 -23 3
-31 -7 -31 -31 -1 -65 -46 -82 -109 l-18 -64 23 -16 c12 -9 26 -19 32 -23 7
-5 6 -18 -2 -41 -7 -18 -12 -45 -12 -60 0 -16 -8 -30 -20 -37 -12 -7 -20 -21
-20 -38 0 -16 -8 -32 -20 -40 -11 -7 -20 -19 -20 -27 0 -8 -7 -15 -15 -15 -11
0 -13 -8 -9 -30 4 -20 -1 -47 -15 -79 -11 -27 -21 -55 -21 -62 0 -12 70 -7
163 13 42 9 47 12 47 37 0 18 22 58 63 114 132 182 247 415 345 702 17 50 42
115 55 145 24 53 75 212 96 298 6 23 15 59 21 80 49 194 75 469 49 525 -13 29
-37 33 -287 43 -89 4 -161 8 -159 10 7 7 167 33 301 49 76 9 145 19 153 22 14
5 15 33 10 217 -4 139 -11 231 -22 271 -8 33 -19 98 -24 145 -5 47 -16 108
-25 135 -8 28 -20 76 -27 108 -18 84 -26 92 -71 72 -45 -18 -49 -19 -42 -2 2
7 19 21 36 31 29 18 30 21 25 68 -4 28 -11 56 -17 63 -6 7 -22 46 -36 86 -37
106 -39 109 -164 234 -81 82 -121 115 -138 115 -13 0 -32 5 -43 10 -36 20
-206 50 -395 70 -104 11 -236 27 -294 35 -215 31 -457 44 -585 33z m-1208
-104 c-3 -3 -12 -4 -19 -1 -8 3 -5 6 6 6 11 1 17 -2 13 -5z m-50 -10 c-3 -3
-12 -4 -19 -1 -8 3 -5 6 6 6 11 1 17 -2 13 -5z m-132 -31 c-70 -16 -96 -20
-89 -13 12 11 42 18 79 18 19 0 23 -2 10 -5z m1889 -146 c-8 -21 -40 -22 -48
-2 -3 8 2 22 11 30 14 14 18 14 30 2 7 -7 11 -21 7 -30z m-819 -101 c35 -21
40 -29 42 -67 2 -24 -2 -59 -8 -77 -12 -36 -66 -92 -89 -92 -48 0 -99 82 -100
158 0 56 14 82 45 82 14 0 25 5 25 10 0 18 44 11 85 -14z m-614 -269 c17 -56
47 -148 66 -204 42 -126 41 -154 -7 -167 -19 -5 -37 -12 -40 -15 -9 -11 -104
-41 -127 -41 -28 0 -81 63 -57 68 37 8 -12 161 -87 271 -57 84 -72 131 -49
146 28 17 122 -77 140 -139 13 -47 112 -201 134 -209 9 -4 17 1 21 12 5 18
-12 198 -21 212 -3 6 -34 200 -34 216 0 21 33 -59 61 -150z m1560 115 c-5 -9
-19 -26 -32 -37 -19 -16 -18 -13 5 18 30 39 43 49 27 19z m96 -28 c8 -23 -11
-57 -41 -74 -40 -21 -51 2 -25 52 20 40 54 52 66 22z m-1260 -167 c-5 -72 -11
-97 -21 -86 -2 2 -1 56 2 119 4 96 7 109 15 80 5 -19 7 -70 4 -113z m1069 65
c-17 -16 -18 -16 -5 5 7 12 15 20 18 17 3 -2 -3 -12 -13 -22z m364 23 c0 -3
-22 -27 -50 -55 -27 -28 -50 -47 -50 -43 0 7 91 103 97 103 2 0 3 -2 3 -5z
m-35 -135 c-28 -29 -55 -39 -55 -20 0 11 72 61 79 55 2 -3 -8 -19 -24 -35z
m-2165 20 c25 -13 92 -109 84 -121 -3 -5 -14 -7 -25 -4 -15 5 -19 1 -19 -19 0
-14 -5 -28 -11 -31 -6 -4 -8 -22 -4 -46 5 -27 3 -39 -5 -39 -7 0 -10 -7 -6
-17 4 -9 2 -19 -4 -23 -7 -4 4 -20 29 -39 23 -18 39 -37 35 -42 -9 -16 -42
-10 -71 14 -15 13 -49 35 -74 50 -84 48 -178 188 -149 222 7 8 18 15 26 15 7
0 28 14 46 30 33 30 60 34 112 14 14 -5 16 -2 10 20 -7 28 -2 31 26 16z m2205
-47 c-11 -7 -22 -13 -27 -13 -14 0 -8 19 9 29 25 13 40 1 18 -16z m60 -9 c19
-20 15 -38 -10 -43 -25 -4 -49 28 -34 46 15 17 24 16 44 -3z m-793 -221 c-11
-15 -34 -50 -52 -78 -18 -27 -30 -42 -26 -31 9 27 88 147 93 142 3 -2 -4 -17
-15 -33z m-1247 -62 c78 -79 125 -139 75 -96 -13 11 -33 29 -45 40 -11 11 -47
42 -78 68 -31 27 -57 52 -57 58 0 25 34 2 105 -70z m-906 -155 c15 -18 3 -46
-20 -46 -25 0 -35 26 -19 45 15 19 24 19 39 1z m3311 -276 c0 -12 16 -30 40
-46 22 -15 40 -30 40 -34 0 -15 -27 -27 -107 -49 -83 -22 -115 -19 -125 10 -7
21 26 73 67 106 47 37 85 43 85 13z m-3350 -120 c18 -11 5 -37 -26 -54 -10 -6
-22 -15 -25 -20 -7 -9 -73 19 -90 40 -24 29 -3 44 63 44 35 0 70 -5 78 -10z
m3339 -128 c49 -23 44 -32 -19 -32 -33 0 -52 5 -64 19 -17 18 -17 19 1 24 32
8 40 7 82 -11z m-3320 -31 c20 -11 43 -27 50 -35 8 -9 26 -16 40 -16 15 0 36
-7 47 -15 18 -15 18 -16 -12 -43 -31 -27 -31 -27 -13 -52 10 -14 19 -43 21
-64 3 -38 1 -40 -32 -50 -20 -6 -49 -21 -65 -34 -23 -18 -37 -22 -63 -17 -49
9 -122 43 -122 56 0 6 -19 32 -41 57 -41 43 -41 45 -35 99 4 35 2 60 -4 69 -9
10 -3 15 27 23 21 6 59 11 84 11 32 0 49 5 53 15 7 20 19 19 65 -4z"/>
<path d="M3817 3846 c-7 -18 -9 -18 179 -56 170 -34 174 -34 174 -20 0 6 -13
10 -30 10 -18 0 -33 7 -39 19 -13 24 -29 30 -131 47 -109 18 -146 18 -153 0z"/>
<path d="M3398 1865 c-3 -3 -36 -13 -74 -23 -64 -16 -69 -19 -74 -47 l-5 -30
-63 3 c-37 3 -62 0 -62 -6 0 -6 17 -24 38 -40 20 -16 55 -56 77 -87 35 -52 37
-58 21 -67 -16 -9 -15 -12 8 -43 33 -42 33 -55 0 -55 -16 0 -24 -5 -22 -12 5
-15 82 -63 117 -73 22 -7 24 -5 18 24 l-7 32 37 -7 c67 -13 176 -49 180 -60 2
-6 -6 -14 -17 -17 -20 -5 -21 -7 -6 -36 9 -16 16 -36 16 -43 0 -7 24 -37 53
-66 48 -50 50 -54 24 -48 l-28 7 18 -27 c17 -27 17 -27 -7 -19 -59 19 -124 34
-129 30 -2 -3 1 -22 7 -42 6 -20 9 -39 6 -42 -3 -3 -33 9 -67 27 -34 18 -68
32 -74 32 -39 -1 20 -72 70 -84 15 -3 27 -11 27 -17 0 -6 -9 -8 -22 -3 l-23 6
23 -24 c27 -30 27 -35 0 -57 l-22 -18 27 -55 c15 -30 37 -64 49 -75 21 -19 28
-20 78 -11 80 15 80 15 80 42 0 20 6 25 32 28 25 2 32 8 33 27 1 13 9 28 18
33 10 5 17 16 17 23 0 10 10 15 30 15 36 0 37 11 10 74 -10 25 -17 52 -14 60
3 7 -13 35 -35 60 -23 26 -41 51 -41 55 0 16 25 31 52 31 36 0 79 46 72 76 -4
16 3 28 29 48 18 14 43 26 54 26 12 0 28 11 37 25 13 20 22 24 49 19 l32 -5
-25 20 c-14 12 -42 35 -62 52 -39 31 -47 47 -25 53 6 2 31 9 55 15 23 7 42 16
42 21 0 5 -24 16 -54 24 -37 11 -63 26 -81 48 -15 18 -37 33 -49 35 -11 1 -38
5 -58 8 -21 3 -38 1 -38 -4 0 -4 -18 -11 -39 -15 -42 -6 -44 -10 -56 -81 -4
-23 -16 -47 -28 -57 l-22 -18 33 -26 c43 -34 59 -64 41 -75 -42 -27 -128 19
-165 86 -14 26 -41 49 -96 80 -118 69 -121 89 -7 50 41 -14 84 -25 97 -25 53
0 125 61 119 100 -6 36 -55 79 -134 116 -73 34 -85 38 -95 29z m228 -470 c24
-18 7 -19 -26 0 -16 9 -19 14 -9 15 8 0 24 -7 35 -15z"/>
<path d="M4052 1369 c2 -6 8 -10 13 -10 5 0 11 4 13 10 2 6 -4 11 -13 11 -9 0
-15 -5 -13 -11z"/>
<path d="M3245 1307 c-11 -12 -30 -43 -42 -68 -11 -26 -29 -51 -39 -57 -15 -8
-12 -13 23 -31 37 -18 42 -19 47 -4 5 13 17 15 66 10 33 -4 60 -4 60 -1 0 2
-7 16 -16 29 -9 15 -14 35 -10 48 4 17 -3 34 -25 60 -17 20 -34 37 -37 36 -4
0 -16 -10 -27 -22z"/>
<path d="M2450 1209 c-7 -17 -25 -43 -40 -57 -14 -15 -31 -35 -37 -46 -13 -24
-80 -48 -116 -40 -21 4 -32 1 -43 -13 -13 -17 -14 -17 -32 6 l-19 23 -22 -36
c-30 -48 -26 -100 9 -104 13 -2 30 -13 38 -23 20 -29 29 -24 57 31 14 28 29
50 34 50 4 0 15 -45 24 -101 11 -71 20 -104 33 -113 9 -7 24 -33 33 -57 24
-64 46 -63 64 3 8 29 17 67 21 85 3 18 14 41 25 52 18 18 20 18 26 3 6 -15 8
-15 20 2 14 18 16 17 55 -23 29 -30 46 -40 59 -36 14 4 20 -1 25 -20 8 -33 49
-59 82 -52 15 3 42 -2 61 -10 39 -16 59 -54 75 -144 13 -73 32 -93 59 -60 30
37 23 101 -11 101 -29 0 -42 55 -46 204 -5 159 0 171 54 129 27 -20 36 -23 43
-12 4 7 10 11 12 9 3 -3 24 -27 47 -55 24 -27 50 -49 57 -47 8 2 22 -3 30 -10
14 -12 15 -9 9 27 l-8 40 19 -25 c24 -32 69 -127 79 -164 8 -34 50 -111 67
-123 25 -18 66 -32 72 -23 3 4 -23 50 -57 100 -137 201 -168 257 -134 244 9
-3 16 -2 16 4 0 17 -29 81 -62 133 l-31 50 -33 -32 c-18 -17 -34 -41 -36 -53
-4 -30 -43 -32 -90 -6 l-38 21 -9 -23 c-8 -23 -13 -23 -90 -20 -51 1 -81 -1
-81 -8 0 -24 -40 -7 -71 30 -19 23 -55 64 -80 93 -25 29 -56 69 -68 90 -12 20
-26 37 -31 37 -4 0 -13 -14 -20 -31z"/>
<path d="M1836 1028 c-9 -12 -16 -27 -16 -32 0 -5 -9 -28 -20 -50 -26 -56 -70
-173 -70 -190 0 -8 14 -16 33 -19 26 -4 45 4 102 40 78 51 92 65 135 140 35
61 37 73 12 73 -9 0 -23 9 -30 20 -10 17 -19 20 -45 15 -24 -5 -37 -2 -46 9
-19 22 -37 20 -55 -6z m59 -137 c-22 -44 -27 -38 -7 9 9 21 18 35 20 30 2 -5
-4 -22 -13 -39z"/>
<path d="M1496 991 c-11 -12 -16 -24 -12 -28 9 -9 39 22 34 37 -2 7 -10 4 -22
-9z"/>
<path d="M701 790 c-68 -38 -81 -49 -81 -69 0 -33 108 -229 176 -318 94 -125
108 -145 116 -164 8 -21 81 -39 158 -39 53 0 61 2 56 16 -3 9 -6 20 -6 25 0 5
-18 9 -40 9 -29 0 -40 4 -40 15 0 34 -33 95 -51 95 -22 0 -49 48 -49 87 0 16
-8 45 -19 66 -25 48 -34 114 -21 156 13 47 4 80 -21 74 -13 -4 -21 2 -28 19
-22 59 -76 70 -150 28z"/>
<path d="M3280 787 c0 -22 61 -87 81 -87 11 0 30 -7 42 -15 24 -16 67 -10 67
9 0 28 -30 49 -108 76 -54 19 -82 25 -82 17z"/>
<path d="M2271 607 c-6 -8 -14 -38 -18 -66 -5 -43 -3 -51 11 -51 28 0 48 85
27 118 -6 10 -10 10 -20 -1z"/>
</g>
</svg>
